{
	"asset":{
		"generator":"Khronos glTF Blender I/O v4.4.56",
		"version":"2.0"
	},
	"extensionsUsed":[
		"KHR_materials_transmission"
	],
	"scene":0,
	"scenes":[
		{
			"name":"Scene",
			"nodes":[
				1
			]
		}
	],
	"nodes":[
		{
			"mesh":0,
			"name":"tmprfujs9nv.ply"
		},
		{
			"children":[
				0
			],
			"name":"world",
			"translation":[
				0,
				0.9866915941238403,
				0
			]
		}
	],
	"materials":[
		{
			"extensions":{
				"KHR_materials_transmission":{
					"transmissionFactor":1
				}
			},
			"name":"Material_0",
			"pbrMetallicRoughness":{
				"baseColorTexture":{
					"index":0
				}
			}
		}
	],
	"meshes":[
		{
			"name":"tmprfujs9nv.ply",
			"primitives":[
				{
					"attributes":{
						"POSITION":0,
						"NORMAL":1,
						"TEXCOORD_0":2
					},
					"indices":3,
					"material":0
				}
			]
		}
	],
	"textures":[
		{
			"sampler":0,
			"source":0
		}
	],
	"images":[
		{
			"mimeType":"image/png",
			"name":"Image_0",
			"uri":"Image_0.png"
		}
	],
	"accessors":[
		{
			"bufferView":0,
			"componentType":5126,
			"count":26018,
			"max":[
				0.60811448097229,
				0.9896595478057861,
				0.22631202638149261
			],
			"min":[
				-0.6163210272789001,
				-0.9981611371040344,
				-0.22886577248573303
			],
			"type":"VEC3"
		},
		{
			"bufferView":1,
			"componentType":5126,
			"count":26018,
			"type":"VEC3"
		},
		{
			"bufferView":2,
			"componentType":5126,
			"count":26018,
			"type":"VEC2"
		},
		{
			"bufferView":3,
			"componentType":5123,
			"count":120000,
			"type":"SCALAR"
		}
	],
	"bufferViews":[
		{
			"buffer":0,
			"byteLength":312216,
			"byteOffset":0,
			"target":34962
		},
		{
			"buffer":0,
			"byteLength":312216,
			"byteOffset":312216,
			"target":34962
		},
		{
			"buffer":0,
			"byteLength":208144,
			"byteOffset":624432,
			"target":34962
		},
		{
			"buffer":0,
			"byteLength":240000,
			"byteOffset":832576,
			"target":34963
		}
	],
	"samplers":[
		{
			"magFilter":9729,
			"minFilter":9987
		}
	],
	"buffers":[
		{
			"byteLength":1072576,
			"uri":"knightT.bin"
		}
	]
}
